<svg width="1920" height="1080" viewBox="0 0 1920 1080" fill="none" xmlns="http://www.w3.org/2000/svg">
<g clip-path="url(#clip0_1103_1289)">
<path d="M147.513 20.1016H0V1061.11H147.513V20.1016Z" fill="white"/>
<path d="M696.663 681.357H620.71C463.811 681.357 336.189 561.716 336.189 414.627V19.7783H772.702C929.602 19.7783 1057.22 139.42 1057.22 286.509V377.348H909.709V286.509C909.709 215.709 848.224 158.068 772.702 158.068H483.703V414.627C483.703 485.426 545.188 543.067 620.71 543.067H696.663V681.357ZM1071.95 793.49V669.248C1071.95 522.158 944.327 402.517 787.427 402.517H696.663V540.807H787.427C862.949 540.807 924.435 598.448 924.435 669.248V793.49C924.435 864.29 862.949 921.931 787.427 921.931H483.703V702.812H336.189V1060.22H787.427C944.327 1060.22 1071.95 940.58 1071.95 793.49Z" fill="white"/>
<path d="M1574.34 1080H1549.8C1359.22 1080 1204.13 934.606 1204.13 755.951V323.967C1204.13 145.313 1359.22 -0.0810547 1549.8 -0.0810547H1574.34C1764.91 -0.0810547 1920 145.313 1920 323.967H1772.49C1772.49 221.602 1683.62 138.289 1574.42 138.289H1549.88C1440.69 138.289 1351.82 221.602 1351.82 323.967V755.951C1351.82 858.316 1440.69 941.629 1549.88 941.629H1574.42C1683.62 941.629 1772.49 858.316 1772.49 755.951H1920C1920 934.606 1764.91 1080 1574.34 1080Z" fill="white"/>
</g>
<defs>
<clipPath id="clip0_1103_1289">
<rect width="1920" height="1080" fill="white"/>
</clipPath>
</defs>
</svg>
